<?xml version="1.0" ?><svg id="Layer_1" style="enable-background:new 0 0 512 512;" version="1.1" viewBox="0 0 512 512" xml:space="preserve" xmlns="http://www.w3.org/2000/svg" xmlns:xlink="http://www.w3.org/1999/xlink"><g id="XMLID_3949_"><polygon id="XMLID_3981_" points="339.7,6 339.7,112.8 448.3,112.8  "/><path d="M367.6,338.6L367.6,338.6c0-49.1-39.8-88.9-88.9-88.9h-215v177.8h215   C327.8,427.5,367.6,387.7,367.6,338.6z M161.5,314.4h-24.7v69.3h-13.4v-69.3H99.1v-10.7h62.4V314.4z M216.6,383.7l-17.4-30.1   l-17.4,30.1H166l25.2-40.3l-24.6-39.7h15.7l16.7,29.6l16.9-29.6h15.8l-24.6,39.7l25.5,40.3H216.6z M274.3,383.7h-13.4v-69.3h-24.3   v-10.7H299v10.7h-24.7V383.7z" id="XMLID_4182_"/><path d="M327.7,6.3H81v231.3h197.7c55.6,0,100.9,45.3,100.9,100.9c0,55.6-45.3,100.9-100.9,100.9H81V506h366.6   l0.6-381.2H327.7V6.3z" id="XMLID_4189_"/></g></svg>